<svg width="145" height="45" viewBox="0 0 145 45" fill="none" xmlns="http://www.w3.org/2000/svg">
<path d="M1.24797 12.192H15.648V15.84H1.24797V12.192ZM20.784 -3.8147e-06H24.576V38.976C24.576 40.256 24.384 41.216 24 41.856C23.648 42.496 23.072 42.992 22.272 43.344C21.472 43.632 20.352 43.824 18.912 43.92C17.472 44.048 15.648 44.112 13.44 44.112C13.376 43.728 13.264 43.296 13.104 42.816C12.944 42.368 12.768 41.904 12.576 41.424C12.384 40.944 12.176 40.528 11.952 40.176C13.712 40.208 15.28 40.224 16.656 40.224C18.064 40.256 19.008 40.256 19.488 40.224C19.968 40.192 20.304 40.096 20.496 39.936C20.688 39.744 20.784 39.424 20.784 38.976V-3.8147e-06ZM14.4 12.192H15.168L15.84 12.048L18.288 13.008C17.456 17.2 16.288 20.992 14.784 24.384C13.28 27.776 11.52 30.736 9.50397 33.264C7.48797 35.792 5.29597 37.84 2.92797 39.408C2.73597 39.12 2.46397 38.8 2.11197 38.448C1.75997 38.064 1.39197 37.696 1.00797 37.344C0.623971 36.992 0.287971 36.736 -2.87592e-05 36.576C2.30397 35.136 4.41597 33.28 6.33597 31.008C8.25597 28.736 9.90397 26.096 11.28 23.088C12.688 20.048 13.728 16.704 14.4 13.056V12.192ZM24.336 7.872C25.168 11.072 26.224 14.176 27.504 17.184C28.784 20.192 30.288 22.992 32.016 25.584C33.744 28.144 35.712 30.416 37.92 32.4C40.128 34.384 42.576 35.952 45.264 37.104C44.976 37.328 44.656 37.632 44.304 38.016C43.952 38.4 43.616 38.8 43.296 39.216C42.976 39.632 42.704 40.016 42.48 40.368C38.832 38.576 35.648 36.096 32.928 32.928C30.24 29.728 27.952 26.048 26.064 21.888C24.208 17.696 22.688 13.232 21.504 8.496L24.336 7.872ZM40.032 7.68L43.344 10.032C42.032 11.504 40.576 13.04 38.976 14.64C37.408 16.208 35.824 17.712 34.224 19.152C32.624 20.592 31.12 21.856 29.712 22.944L27.168 20.928C28.544 19.808 30.016 18.496 31.584 16.992C33.184 15.456 34.72 13.888 36.192 12.288C37.696 10.656 38.976 9.12 40.032 7.68Z" fill="url(#paint0_linear_5_2)"/>
<path d="M73.488 40.224V15.792C73.488 15.248 73.376 14.8 73.152 14.448C72.96 14.064 72.624 13.632 72.144 13.152C71.664 12.672 71.28 12.432 70.992 12.432C70.352 12.432 69.504 13.072 68.448 14.352C68.544 15.152 68.592 16 68.592 16.896V40.224H61.968V19.68C61.968 16.96 61.776 15.056 61.392 13.968C61.04 12.88 60.272 11.584 59.088 10.08L64.848 6.048C65.872 6.784 66.608 7.664 67.056 8.688C69.36 6.928 70.992 6.048 71.952 6.048C72.912 6.048 74.72 7.28 77.376 9.744C80.032 7.28 81.904 6.048 82.992 6.048C83.792 6.048 85.152 6.896 87.072 8.592C89.024 10.256 90.24 11.44 90.72 12.144C91.2 12.816 91.44 13.712 91.44 14.832V40.224H84.816V15.792C84.816 15.184 84.704 14.72 84.48 14.4C84.256 14.048 83.872 13.632 83.328 13.152C82.816 12.672 82.352 12.432 81.936 12.432C81.552 12.432 80.928 12.96 80.064 14.016C80.096 14.176 80.112 14.448 80.112 14.832V40.224H73.488ZM95.778 14.352H102.114V30.96C102.114 32.592 102.306 33.856 102.69 34.752C103.074 35.648 103.682 36.432 104.514 37.104L99.234 40.8C96.93 38.976 95.778 36.384 95.778 33.024V14.352ZM99.042 4.32C99.394 4.32 100.178 4.848 101.394 5.904C102.61 6.928 103.218 7.632 103.218 8.016C103.218 8.368 102.594 9.072 101.346 10.128C100.13 11.184 99.346 11.712 98.994 11.712C98.674 11.712 97.906 11.2 96.69 10.176C95.474 9.12 94.866 8.416 94.866 8.064C94.866 7.68 95.474 6.96 96.69 5.904C97.938 4.848 98.722 4.32 99.042 4.32ZM105.939 19.392V14.352H122.835V17.76L112.563 34.8H116.019C117.715 34.8 119.283 34.16 120.723 32.88L123.987 36.768C123.155 37.888 122.035 38.752 120.627 39.36C119.219 39.936 117.795 40.224 116.355 40.224H105.459V36.144L115.203 19.392H105.939ZM126.387 14.352H132.723V32.208C132.723 32.752 132.979 33.328 133.491 33.936C134.003 34.512 134.483 34.8 134.931 34.8C135.379 34.8 136.307 34.144 137.715 32.832V14.352H144.051V40.224H139.155L138.579 37.392C136.179 39.664 134.499 40.8 133.539 40.8C132.579 40.8 131.139 39.92 129.219 38.16C127.331 36.368 126.387 34.608 126.387 32.88V14.352Z" fill="url(#paint1_linear_5_2)"/>
<defs>
<linearGradient id="paint0_linear_5_2" x1="124.327" y1="11.724" x2="95.6167" y2="118.984" gradientUnits="userSpaceOnUse">
<stop stop-color="#3BB2FF"/>
<stop offset="1" stop-color="#E3F4FF"/>
</linearGradient>
<linearGradient id="paint1_linear_5_2" x1="28.608" y1="-15.776" x2="134.163" y2="-69.1192" gradientUnits="userSpaceOnUse">
<stop stop-color="#3BB2FF"/>
<stop offset="1" stop-color="#0F2B46"/>
</linearGradient>
</defs>
</svg>
